<?xml version="1.0" encoding="UTF-8"?>
<!DOCTYPE svg PUBLIC "-//W3C//DTD SVG 1.1//EN" "http://www.w3.org/Graphics/SVG/1.1/DTD/svg11.dtd">
<!-- Creator: CorelDRAW (OEM Version) -->
<svg xmlns="http://www.w3.org/2000/svg" xml:space="preserve" width="156.459mm" height="24.541mm" version="1.1" shape-rendering="geometricPrecision" text-rendering="geometricPrecision" image-rendering="optimizeQuality" fill-rule="evenodd" clip-rule="evenodd"
viewBox="0 0 15645.9 2454.1"
 xmlns:xlink="http://www.w3.org/1999/xlink"
 xmlns:xodm="http://www.corel.com/coreldraw/odm/2003">
 <g id="Layer_x0020_1">
  <metadata id="CorelCorpID_0Corel-Layer"/>
  <g id="_2946988799680">
   <path fill="black" fill-rule="nonzero" d="M7808.52 1675.01c-70.18,33.94 -162.15,50.91 -275.44,50.91 -147.7,0 -263.98,-43.34 -348.61,-130.26 -84.85,-86.93 -127.05,-202.74 -127.05,-347.46 0,-154.12 47.47,-279.11 142.65,-374.98 95.18,-95.86 218.79,-143.79 370.62,-143.79 94.03,0 173.38,11.92 237.83,35.77l0 208.93c-64.45,-38.53 -137.84,-57.79 -220.4,-57.79 -90.36,0 -163.52,28.44 -219.02,85.32 -55.51,56.87 -83.26,133.93 -83.26,231.17 0,93.12 26.15,167.42 78.67,222.7 52.29,55.27 122.93,83.02 211.68,83.02 84.63,0 162.15,-20.64 232.33,-61.92l0 198.38zm1001.77 34.17l-217.65 0 0 -392.41 -399.06 0 0 392.41 -217.19 0 0 -963.47 217.19 0 0 384.38 399.06 0 0 -384.38 217.65 0 0 963.47zm1028.83 0l-249.3 0 -149.76 -247.92c-11.24,-18.81 -22.01,-35.55 -32.33,-50.46 -10.33,-14.67 -20.65,-27.29 -31.2,-37.84 -10.55,-10.55 -21.55,-18.57 -33.02,-24.31 -11.47,-5.5 -23.85,-8.25 -37.15,-8.25l-58.49 0 0 368.78 -217.19 0 0 -963.47 344.02 0c233.93,0 350.9,87.38 350.9,261.91 0,33.71 -5.28,64.67 -15.6,93.11 -10.32,28.44 -24.77,54.13 -43.58,77.06 -18.8,22.71 -41.51,42.43 -68.11,58.94 -26.83,16.74 -56.42,29.59 -89.22,38.99l0 2.75c14.45,4.59 28.21,11.7 41.75,21.79 13.53,10.09 26.37,21.79 38.98,35.32 12.62,13.53 24.54,27.98 36.01,43.35 11.47,15.36 21.79,30.5 31.19,45.41l182.1 284.84zm-591.25 -800.87l0 268.11 94.03 0c46.56,0 83.94,-13.54 112.15,-40.37 28.67,-27.29 43.12,-61.23 43.12,-101.37 0,-84.4 -50.46,-126.37 -151.37,-126.37l-97.93 0zm1088.47 817.61c-138.07,0 -250.44,-44.95 -337.37,-134.62 -86.92,-89.91 -130.26,-206.87 -130.26,-351.13 0,-152.28 44.03,-275.44 132.33,-369.47 88.3,-94.03 205.03,-141.27 350.66,-141.27 137.61,0 248.84,45.18 333.7,135.08 84.86,90.13 127.28,208.93 127.28,356.17 0,151.37 -44.03,273.61 -132.1,366.26 -87.84,92.65 -202.74,138.98 -344.24,138.98zm9.4 -809.58c-76.14,0 -136.69,28.44 -181.41,85.77 -44.72,57.11 -67.2,132.56 -67.2,226.6 0,95.4 22.48,170.86 67.2,226.59 44.72,55.5 103.43,83.25 175.91,83.25 74.99,0 134.16,-27.06 178.2,-80.96 43.8,-54.12 65.82,-128.89 65.82,-224.76 0,-99.99 -21.33,-177.74 -63.76,-233.24 -42.66,-55.5 -100.91,-83.25 -174.76,-83.25zm1724.89 792.84l-214.44 0 0 -576.57c0,-62.15 2.76,-130.95 8.03,-206.18l-5.27 0c-11.24,59.17 -21.33,101.6 -30.28,127.75l-225.67 655 -177.51 0 -229.8 -648.35c-6.2,-17.43 -16.29,-62.38 -30.28,-134.4l-5.96 0c5.73,94.95 8.71,178.2 8.71,249.99l0 532.76 -195.63 0 0 -963.47 317.87 0 197.01 571.06c15.6,45.64 27.06,91.51 34.17,137.84l4.13 0c11.93,-53.44 24.77,-99.77 38.3,-139.21l196.78 -569.69 309.84 0 0 963.47zm1066.22 0l-236.45 0 -68.58 -214.44 -342.64 0 -67.88 214.44 -235.31 0 350.9 -963.47 257.32 0 342.64 963.47zm-354.8 -380.94l-103.43 -323.83c-7.57,-24.31 -13.07,-53.21 -16.28,-86.69l-5.28 0c-2.29,28.21 -7.8,56.19 -16.74,83.94l-104.81 326.58 246.54 0zm430.71 344.02l0 -215.13c38.99,32.8 81.42,57.34 127.06,73.62 45.64,16.28 91.74,24.54 138.29,24.54 27.52,0 51.37,-2.52 71.56,-7.34 20.41,-5.04 37.38,-11.69 51.14,-20.64 13.76,-8.71 23.85,-19.03 30.5,-30.73 6.88,-11.93 10.09,-24.77 10.09,-38.76 0,-18.81 -5.27,-35.55 -16.05,-50.23 -10.78,-14.9 -25.46,-28.66 -44.03,-41.05 -18.58,-12.61 -40.6,-24.77 -66.28,-36.24 -25.46,-11.69 -52.98,-23.62 -82.57,-35.77 -75.22,-31.19 -131.41,-69.49 -168.34,-114.9 -36.92,-45.18 -55.27,-99.77 -55.27,-163.75 0,-50.23 9.86,-93.35 30.05,-129.35 20.18,-36.24 47.7,-65.83 82.33,-89.22 34.86,-23.16 75,-40.36 120.64,-51.37 45.63,-11.01 94.03,-16.51 145.17,-16.51 50.23,0 94.72,3.21 133.48,9.17 38.53,5.96 74.3,15.37 107.1,27.98l0 200.9c-16.28,-11.23 -33.71,-21.1 -52.75,-29.58 -19.03,-8.49 -38.76,-15.6 -58.94,-21.33 -19.95,-5.5 -40.13,-9.63 -60.09,-12.39 -19.95,-2.52 -38.76,-3.89 -56.64,-3.89 -24.77,0 -47.02,2.29 -67.2,6.88 -20.18,4.81 -37.16,11.46 -51.15,19.95 -13.76,8.48 -24.54,18.58 -32.33,30.5 -7.57,11.93 -11.24,25.23 -11.24,39.91 0,16.28 4.13,30.73 12.61,43.34 8.49,12.85 20.64,25 36.47,36.47 15.59,11.24 34.63,22.47 57.1,33.48 22.25,11.01 47.71,22.25 75.92,33.95 38.53,16.05 72.93,33.25 103.66,51.37 30.73,18.12 57.11,38.76 78.89,61.46 22.02,22.94 38.76,49.08 50.46,78.44 11.7,29.12 17.43,63.3 17.43,102.29 0,53.89 -10.09,98.84 -30.5,135.54 -20.41,36.46 -47.94,66.05 -83.02,88.52 -34.86,22.71 -75.46,38.99 -121.79,48.85 -46.55,9.87 -95.4,14.68 -147.01,14.68 -52.74,0 -102.97,-4.36 -150.67,-13.3 -47.71,-8.94 -89.22,-22.48 -124.08,-40.36zm1222.86 53.66c-138.07,0 -250.44,-44.95 -337.37,-134.62 -86.92,-89.91 -130.26,-206.87 -130.26,-351.13 0,-152.28 44.03,-275.44 132.33,-369.47 88.3,-94.03 205.03,-141.27 350.66,-141.27 137.61,0 248.84,45.18 333.7,135.08 84.86,90.13 127.28,208.93 127.28,356.17 0,151.37 -44.03,273.61 -132.1,366.26 -87.84,92.65 -202.74,138.98 -344.24,138.98zm9.4 -809.58c-76.14,0 -136.69,28.44 -181.41,85.77 -44.72,57.11 -67.2,132.56 -67.2,226.6 0,95.4 22.48,170.86 67.2,226.59 44.72,55.5 103.43,83.25 175.91,83.25 74.99,0 134.16,-27.06 178.2,-80.96 43.8,-54.12 65.82,-128.89 65.82,-224.76 0,-99.99 -21.33,-177.74 -63.76,-233.24 -42.66,-55.5 -100.91,-83.25 -174.76,-83.25zm1200.61 792.84l-573.82 0 0 -963.47 217.19 0 0 787.33 356.63 0 0 176.14z"/>
   <path fill="black" fill-rule="nonzero" d="M3171.34 1709.18l-577.95 0 0 -963.47 555.7 0 0 176.59 -338.51 0 0 214.44 315.12 0 0 175.91 -315.12 0 0 220.39 360.76 0 0 176.14zm1021.26 0l-219.02 0 -397.22 -605.47c-23.17,-35.32 -39.45,-61.92 -48.39,-79.81l-2.53 0c3.44,33.94 5.28,86.01 5.28,155.73l0 529.55 -205.04 0 0 -963.47 233.94 0 382.31 586.43c17.43,26.6 33.48,52.75 48.39,78.66l2.75 0c-3.67,-22.24 -5.5,-66.51 -5.5,-132.33l0 -532.76 205.03 0 0 963.47zm1022.65 -963.47l-332.09 963.47 -245.86 0 -327.96 -963.47 233.93 0 200.91 670.6c10.78,36.23 17.2,68.11 19.49,96.09l3.9 0c3.21,-30.04 10.09,-63.07 20.87,-98.84l199.53 -667.85 227.28 0zm522.67 980.21c-138.07,0 -250.44,-44.95 -337.37,-134.62 -86.92,-89.91 -130.26,-206.87 -130.26,-351.13 0,-152.28 44.03,-275.44 132.33,-369.47 88.3,-94.03 205.03,-141.27 350.66,-141.27 137.61,0 248.84,45.18 333.7,135.08 84.86,90.13 127.28,208.93 127.28,356.17 0,151.37 -44.03,273.61 -132.1,366.26 -87.84,92.65 -202.74,138.98 -344.24,138.98zm9.4 -809.58c-76.14,0 -136.69,28.44 -181.41,85.77 -44.72,57.11 -67.2,132.56 -67.2,226.6 0,95.4 22.48,170.86 67.2,226.59 44.72,55.5 103.43,83.25 175.91,83.25 74.99,0 134.16,-27.06 178.2,-80.96 43.8,-54.12 65.82,-128.89 65.82,-224.76 0,-99.99 -21.33,-177.74 -63.76,-233.24 -42.66,-55.5 -100.91,-83.25 -174.76,-83.25z"/>
   <polygon fill="#E2A018" points="-0.23,463.32 1079.41,856.46 1079.41,2454.74 -0.23,2061.6 "/>
   <polygon fill="#03738B" points="2214.92,463.32 1135.28,856.46 1135.28,2454.74 2214.92,2061.6 "/>
   <polygon fill="#953F62" points="-0.23,403.89 1107.35,807.16 2214.92,403.89 1107.35,0.61 "/>
   <polygon fill="#AD4B72" points="1107.35,0.61 1107.35,807.16 2214.92,403.89 "/>
   <polygon fill="#013A45" points="1135.28,856.45 2214.92,2061.6 1135.28,2454.74 "/>
   <polygon fill="#E8AE33" points="1079.41,856.45 -0.23,2061.6 1079.41,2454.74 "/>
   <polygon fill="#953F62" points="6827,1418.83 6444.69,1418.83 6444.69,1036.52 6827,1036.52 "/>
  </g>
 </g>
</svg>
